mtllib Cornell-box-upd.mtl

l 0.0 0.0 0.0

o light
v -0.649011 2.738497 -0.517968
v 0.650989 2.739334 0.532032
v -0.649011 2.739334 0.532032
v 0.650989 2.738497 -0.517968
vt 0.100000 0.100000
vt 0.100000 0.100000
vt 0.100000 0.100000
vt 0.100000 0.100000
vn 0.0000 -1.0000 0.0008
usemtl White
s 1
f 1/1/1 2/2/1 3/3/1
f 1/1/1 4/4/1 2/2/1

o back_wall
v -2.715011 -2.742686 -2.785598
v 2.780989 2.745313 -2.789967
v -2.779011 2.745313 -2.789967
v 2.780989 -2.742686 -2.785598
vt 0.100000 0.100000
vt 0.100000 0.100000
vt 0.100000 0.100000
vt 0.100000 0.100000
vn 0.0000 0.0008 1.0000
usemtl Grey
s 1
f 5/5/2 6/6/2 7/7/2
f 5/5/2 8/8/2 6/6/2
o ceiling
v -2.779011 2.745313 -2.789968
v 2.780989 2.749765 2.802031
v -2.779011 2.749765 2.802031
v 2.780989 2.745313 -2.789968
vt 0.100000 0.100000
vt 0.100000 0.100000
vt 0.100000 0.100000
vt 0.100000 0.100000
vn 0.0000 -1.0000 0.0008
usemtl Cyan
s 1
f 9/9/3 10/10/3 11/11/3
f 9/9/3 12/12/3 10/10/3

o floor
v 2.780989 -2.738233 2.806401
v -2.715011 -2.742686 -2.785598
v -2.747011 -2.738233 2.806401
v 2.780989 -2.742686 -2.785598
vt 0.900000 0.900000
vt 0.100000 0.100000
vt 0.100000 0.900000
vt 0.900000 0.100000
vn 0.0000 1.0000 -0.0008
usemtl Checker
s 1
f 13/13/4 14/14/4 15/15/4
f 13/13/4 16/16/4 14/14/4

o left_wall
v -2.747011 -2.738233 2.806401
v -2.779011 2.745313 -2.789968
v -2.779011 2.749765 2.802031
v -2.715011 -2.742686 -2.785598
vt 0.100000 0.100000
vt 0.100000 0.100000
vt 0.100000 0.100000
vt 0.100000 0.100000
vn 1.0000 0.0087 0.0028
vn 1.0000 0.0088 0.0029
vn 1.0000 0.0058 -0.0000
vn 0.9999 0.0117 0.0057
usemtl Magenta
s 1
f 17/17/5 18/18/6 19/19/7
f 17/17/5 20/20/8 18/18/6

o right_wall
v 2.780989 -2.738233 2.806401
v 2.780989 2.745313 -2.789968
v 2.780989 -2.742686 -2.785598
v 2.780989 2.749765 2.802031
vt 0.100000 0.100000
vt 0.100000 0.100000
vt 0.100000 0.100000
vt 0.100000 0.100000
vn -1.0000 0.0000 0.0000
usemtl Yellow
s 1
f 21/21/9 22/22/9 23/23/9
f 21/21/9 24/24/9 22/22/9

o short_box
v 1.480989 -1.088751 2.155087
v 0.380989 -1.090399 0.085088
v -0.119011 -1.089141 1.665088
v -0.119011 -1.089141 1.665088
v 0.380989 -2.740399 0.086402
v -0.119011 -2.739141 1.666401
v 1.480989 -1.088751 2.155087
v -0.119011 -2.739141 1.666401
v 1.480989 -2.738750 2.156401
v 1.960989 -1.090025 0.555088
v 1.480989 -2.738750 2.156401
v 1.960989 -2.740024 0.556402
v 0.380989 -1.090399 0.085088
v 1.960989 -2.740024 0.556402
v 0.380989 -2.740399 0.086402
v 1.960989 -1.090025 0.555088
v 0.380989 -1.090399 0.085088
v -0.119011 -1.089141 1.665088
v 1.480989 -1.088751 2.155087
v 1.960989 -1.090025 0.555088
vt 0.100000 0.100000
vt 0.100000 0.100000
vt 0.100000 0.100000
vt 0.100000 0.100000
vt 0.100000 0.100000
vt 0.100000 0.100000
vt 0.100000 0.100000
vt 0.100000 0.100000
vt 0.100000 0.100000
vt 0.100000 0.100000
vt 0.100000 0.100000
vt 0.100000 0.100000
vt 0.100000 0.100000
vt 0.100000 0.100000
vt 0.100000 0.100000
vt 0.100000 0.100000
vt 0.100000 0.100000
vt 0.100000 0.100000
vt 0.100000 0.100000
vt 0.100000 0.100000
vn 0.0000 1.0000 -0.0008
vn -0.9534 -0.0002 -0.3017
vn -0.2928 0.0008 0.9562
vn 0.9578 0.0002 0.2873
vn 0.2851 -0.0008 -0.9585
usemtl Red
s 1
f 25/25/10 26/26/10 27/27/10
f 28/28/11 29/29/11 30/30/11
f 31/31/12 32/32/12 33/33/12
f 34/34/13 35/35/13 36/36/13
f 37/37/14 38/38/14 39/39/14
f 25/25/10 40/40/10 26/26/10
f 28/28/11 41/41/11 29/29/11
f 31/31/12 42/42/12 32/32/12
f 34/34/13 43/43/13 35/35/13
f 37/37/14 44/44/14 38/38/14

o tall_box
v 0.130989 0.559409 -0.156226
v -1.939011 0.558533 -1.256226
v -1.449011 0.559799 0.333774
v -1.449011 -2.740200 0.336402
v -1.939011 0.558533 -1.256226
v -1.939011 -2.741466 -1.253598
v -1.939011 0.558533 -1.256226
v -0.359011 -2.741864 -1.753598
v -1.939011 -2.741466 -1.253598
v -0.359011 0.558135 -1.756226
v 0.130989 -2.740590 -0.153598
v -0.359011 -2.741864 -1.753598
v 0.130989 0.559409 -0.156226
v -1.449011 -2.740200 0.336402
v 0.130989 -2.740590 -0.153598
v -0.359011 0.558135 -1.756226
v -1.449011 0.559799 0.333774
v -0.359011 0.558135 -1.756226
v 0.130989 0.559409 -0.156226
v -1.449011 0.559799 0.333774
vt 0.100000 0.100000
vt 0.100000 0.100000
vt 0.100000 0.100000
vt 0.100000 0.100000
vt 0.100000 0.100000
vt 0.100000 0.100000
vt 0.100000 0.100000
vt 0.100000 0.100000
vt 0.100000 0.100000
vt 0.100000 0.100000
vt 0.100000 0.100000
vt 0.100000 0.100000
vt 0.100000 0.100000
vt 0.100000 0.100000
vt 0.100000 0.100000
vt 0.100000 0.100000
vt 0.100000 0.100000
vt 0.100000 0.100000
vt 0.100000 0.100000
vt 0.100000 0.100000
vn -0.0000 1.0000 -0.0008
vn -0.9556 0.0002 0.2945
vn -0.3017 -0.0008 -0.9534
vn 0.9562 -0.0002 -0.2928
vn 0.2962 0.0008 0.9551
usemtl Blue
s 1
f 45/45/15 46/46/15 47/47/15
f 48/48/16 49/49/16 50/50/16
f 51/51/17 52/52/17 53/53/17
f 54/54/18 55/55/18 56/56/18
f 57/57/19 58/58/19 59/59/19
f 45/45/15 60/60/15 46/46/15
f 48/48/16 61/61/16 49/49/16
f 51/51/17 62/62/17 52/52/17
f 54/54/18 63/63/18 55/55/18
f 57/57/19 64/64/19 58/58/19

o floorfloor
v 10.000000 4.000000 -1.000000
v 4.000000 -4.000000 -1.000000
v 4.000000 4.000000 -1.000000
v 10.000000 -4.000000 -1.000000
vt 1.000000 1.000000
vt 0.000000 0.000000
vt 0.000000 1.000000
vt 1.000000 0.000000
vn 0.0000 0.0000 -1.0000
usemtl Checker
s 1
f 65/65/20 66/66/20 67/67/20
f 65/65/20 68/68/20 66/66/20
o Sphere
v 1.738895 0.943318 -1.071136
v 1.964925 0.509071 -1.534869
v 1.205442 0.647849 -1.543037
v 1.107894 0.152368 -1.764770
v 1.210628 0.942842 -1.106101
v 1.240104 0.987324 -0.545378
v 1.732156 -0.099021 -1.778061
v 2.349372 0.090717 -1.270170
v 2.194772 0.691699 -0.741841
v 2.423316 -0.325682 -0.796803
v 1.991357 -0.555042 -1.437060
v 2.366946 0.302695 -0.501903
v 1.393498 -1.024774 -0.710578
v 1.990042 -0.859551 -0.856218
v 1.660682 -0.952664 -0.508822
v 2.187681 -0.455126 -0.234834
v 1.965578 0.499734 -0.082813
v 1.928738 0.021455 0.107781
v 1.543338 -0.658113 0.004067
v 1.759845 0.868611 -0.344370
v 1.504468 0.206945 0.233621
v 1.018551 -0.311945 0.106997
v 1.063734 0.515348 0.036545
v 0.866298 -0.678889 -0.247366
v 0.669933 0.586728 -0.427702
v 0.526092 0.035763 -0.287651
v 0.507531 -0.393093 -0.590503
v 0.452785 -0.030688 -1.179601
v 0.899550 -0.832290 -1.104190
v 0.887874 -0.853842 -0.666787
v 0.660173 0.643993 -1.083477
v 1.519732 -0.599043 -1.613724
v 1.611782 -0.909597 -1.219683
v 0.918603 -0.502699 -1.540776
vt 0.608795 0.860754
vt 0.652882 0.664370
vt 0.797448 0.715726
vt 0.804071 0.544218
vt 0.846846 0.874295
vt 0.734375 1.000000
vt 0.702279 0.471674
vt 0.570091 0.517255
vt 0.490178 0.721497
vt 0.502420 0.401904
vt 0.633507 0.317235
vt 0.452981 0.593425
vt 0.730366 0.048064
vt 0.505027 0.196812
vt 0.349433 0.116762
vt 0.399088 0.361369
vt 0.352569 0.658936
vt 0.330856 0.509424
vt 0.270653 0.283141
vt 0.352620 0.815540
vt 0.259675 0.563607
vt 0.166187 0.049004
vt 0.185728 0.401903
vt 0.180802 0.654772
vt 0.123216 0.273583
vt 0.163146 0.893619
vt 0.070316 0.695143
vt 0.082812 0.514485
vt 0.030787 0.376397
vt 1.000000 0.334687
vt 0.943585 0.488329
vt 0.907378 0.207006
vt 0.996354 0.174786
vt 0.000000 0.725079
vt 0.000000 0.479867
vt 0.941907 0.713127
vt 0.733717 0.301268
vt 0.683873 0.154626
vt 0.038529 0.186427
vt 0.845200 0.344076
vt 0.945930 0.046024
vt 0.985236 0.918502
vn 0.3032 0.9099 -0.2830
vn 0.4887 0.4975 -0.7166
vn -0.2075 0.6234 -0.7538
vn -0.3256 0.1482 -0.9338
vn -0.2255 0.9227 -0.3125
vn -0.2028 0.9467 0.2502
vn 0.2788 -0.0749 -0.9574
vn 0.8839 0.0855 -0.4598
vn 0.7460 0.6657 0.0175
vn 0.9496 -0.3126 -0.0199
vn 0.5982 -0.5173 -0.6119
vn 0.9194 0.2604 0.2946
vn -0.0658 -0.9938 0.0897
vn 0.5764 -0.8148 -0.0616
vn 0.2377 -0.9113 0.3362
vn 0.7225 -0.4298 0.5415
vn 0.5213 0.4993 0.6920
vn 0.5177 -0.0233 0.8553
vn 0.1142 -0.6304 0.7678
vn 0.2980 0.8399 0.4536
vn 0.0528 0.1968 0.9790
vn -0.3964 -0.2604 0.8803
vn -0.3454 0.5037 0.7918
vn -0.5251 -0.6641 0.5322
vn -0.7588 0.5686 0.3176
vn -0.8783 0.0573 0.4747
vn -0.9118 -0.3816 0.1516
vn -0.9294 -0.0199 -0.3686
vn -0.5243 -0.7868 -0.3257
vn -0.5368 -0.8339 0.1286
vn -0.7558 0.5919 -0.2801
vn 0.0356 -0.5784 -0.8149
vn 0.1413 -0.8912 -0.4309
vn -0.4882 -0.4677 -0.7368
Phong
usemtl sphereMtl
s 1
f 69/69/21 70/70/22 71/71/23
f 71/71/23 70/70/22 72/72/24
f 73/73/25 74/74/26 69/69/21
f 75/75/27 70/70/22 76/76/28
f 69/69/21 77/77/29 70/70/22
f 76/76/28 78/78/30 79/79/31
f 77/77/29 80/80/32 76/76/28
f 81/81/33 82/82/34 83/83/35
f 78/78/30 84/84/36 82/82/34
f 80/80/32 84/84/36 78/78/30
f 82/82/34 84/84/36 83/83/35
f 80/80/32 85/85/37 86/86/38
f 80/80/32 86/86/38 84/84/36
f 86/86/38 87/87/39 84/84/36
f 88/88/40 89/89/41 85/85/37
f 87/87/39 81/90/33 83/83/35
f 89/89/41 90/91/42 87/87/39
f 91/92/43 90/91/42 89/89/41
f 90/91/42 92/93/44 87/87/39
f 91/92/43 74/94/26 93/95/45
f 94/96/46 95/97/47 92/93/44
f 95/98/47 96/99/48 97/100/49
f 95/98/47 97/100/49 98/101/50
f 99/102/51 96/103/48 94/96/46 93/95/45
f 73/73/25 71/71/23 99/104/51
f 72/72/24 70/70/22 75/75/27
f 100/105/52 75/75/27 79/79/31
f 100/105/52 79/79/31 101/106/53
f 75/75/27 76/76/28 79/79/31
f 101/106/53 79/79/31 82/82/34
f 82/82/34 79/79/31 78/78/30
f 70/70/22 77/77/29 76/76/28
f 81/81/33 101/106/53 82/82/34
f 76/76/28 80/80/32 78/78/30
f 69/69/21 88/88/40 77/77/29
f 69/69/21 74/94/26 88/88/40
f 77/77/29 85/85/37 80/80/32
f 77/77/29 88/88/40 85/85/37
f 83/83/35 84/84/36 87/87/39
f 86/86/38 89/89/41 87/87/39
f 86/86/38 85/85/37 89/89/41
f 88/88/40 91/92/43 89/89/41
f 91/92/43 88/88/40 74/94/26
f 81/90/33 87/87/39 92/93/44
f 90/91/42 91/92/43 94/96/46
f 90/91/42 94/96/46 92/93/44
f 81/90/33 92/93/44 98/107/50
f 94/96/46 91/92/43 93/95/45
f 92/93/44 95/97/47 98/107/50
f 95/97/47 94/96/46 96/103/48
f 93/95/45 74/94/26 99/102/51
f 101/106/53 97/100/49 102/108/54 100/105/52
f 98/101/50 97/100/49 81/109/33
f 74/110/26 73/73/25 99/104/51
f 97/100/49 96/99/48 102/108/54
f 99/104/51 71/71/23 72/72/24
f 96/99/48 99/104/51 72/72/24
f 96/99/48 72/72/24 102/108/54
f 81/109/33 97/100/49 101/106/53
f 100/105/52 102/108/54 72/72/24 75/75/27
f 71/71/23 73/73/25 69/69/21
